<mxfile host="app.diagrams.net" agent="Mozilla/5.0 (Windows NT 10.0; Win64; x64; rv:142.0) Gecko/20100101 Firefox/142.0" version="27.2.0">
  <diagram name="Página-1" id="rlE6wBfw6cX0nI2bYc24">
    <mxGraphModel dx="1055" dy="607" grid="1" gridSize="10" guides="1" tooltips="1" connect="1" arrows="1" fold="1" page="1" pageScale="1" pageWidth="827" pageHeight="1169" math="0" shadow="0">
      <root>
        <mxCell id="0" />
        <mxCell id="1" parent="0" />
        <mxCell id="eXbBCO9rOejYfm_jfO5L-5" style="edgeStyle=orthogonalEdgeStyle;rounded=0;orthogonalLoop=1;jettySize=auto;html=1;exitX=0.5;exitY=1;exitDx=0;exitDy=0;fontSize=13;" parent="1" source="eXbBCO9rOejYfm_jfO5L-1" target="eXbBCO9rOejYfm_jfO5L-2" edge="1">
          <mxGeometry relative="1" as="geometry" />
        </mxCell>
        <mxCell id="eXbBCO9rOejYfm_jfO5L-1" value="Setup del simulador" style="rounded=1;whiteSpace=wrap;html=1;fontSize=13;" parent="1" vertex="1">
          <mxGeometry x="100" y="120" width="140" height="60" as="geometry" />
        </mxCell>
        <mxCell id="eXbBCO9rOejYfm_jfO5L-2" value="Bloque 1" style="rounded=1;whiteSpace=wrap;html=1;fontSize=13;" parent="1" vertex="1">
          <mxGeometry x="110" y="220" width="120" height="30" as="geometry" />
        </mxCell>
        <mxCell id="eXbBCO9rOejYfm_jfO5L-3" value="" style="endArrow=none;dashed=1;html=1;dashPattern=1 3;strokeWidth=2;rounded=0;entryX=0.5;entryY=1;entryDx=0;entryDy=0;fontSize=13;" parent="1" target="eXbBCO9rOejYfm_jfO5L-2" edge="1">
          <mxGeometry width="50" height="50" relative="1" as="geometry">
            <mxPoint x="170" y="290" as="sourcePoint" />
            <mxPoint x="150" y="270" as="targetPoint" />
          </mxGeometry>
        </mxCell>
        <mxCell id="eXbBCO9rOejYfm_jfO5L-7" style="edgeStyle=orthogonalEdgeStyle;rounded=0;orthogonalLoop=1;jettySize=auto;html=1;exitX=0.5;exitY=1;exitDx=0;exitDy=0;entryX=0.5;entryY=0;entryDx=0;entryDy=0;fontSize=13;" parent="1" source="eXbBCO9rOejYfm_jfO5L-4" target="eXbBCO9rOejYfm_jfO5L-6" edge="1">
          <mxGeometry relative="1" as="geometry" />
        </mxCell>
        <mxCell id="eXbBCO9rOejYfm_jfO5L-4" value="&lt;div&gt;Motor:&lt;/div&gt;&lt;div align=&quot;left&quot;&gt;&amp;nbsp;- Lectura de parámetros&lt;/div&gt;&lt;div align=&quot;left&quot;&gt;&amp;nbsp;- Recibir entradas&lt;/div&gt;&lt;div align=&quot;left&quot;&gt;&amp;nbsp;- Realizar cálculos&amp;nbsp; analíticamente&lt;/div&gt;&lt;div align=&quot;left&quot;&gt;&amp;nbsp;- Devolver salidas&lt;/div&gt;" style="rounded=1;whiteSpace=wrap;html=1;fontSize=13;" parent="1" vertex="1">
          <mxGeometry x="85" y="290" width="170" height="100" as="geometry" />
        </mxCell>
        <mxCell id="eXbBCO9rOejYfm_jfO5L-6" value="&lt;div&gt;Reductora:&lt;/div&gt;&lt;div align=&quot;left&quot;&gt;&amp;nbsp;- Lectura de parámetros&lt;/div&gt;&lt;div align=&quot;left&quot;&gt;&amp;nbsp;- Recibir entradas&lt;/div&gt;&lt;div align=&quot;left&quot;&gt;&amp;nbsp;- Realizar cálculos&amp;nbsp; analíticamente&lt;/div&gt;&lt;div align=&quot;left&quot;&gt;&amp;nbsp;- Devolver salidas&lt;/div&gt;" style="rounded=1;whiteSpace=wrap;html=1;fontSize=13;" parent="1" vertex="1">
          <mxGeometry x="85" y="430" width="170" height="100" as="geometry" />
        </mxCell>
        <mxCell id="eXbBCO9rOejYfm_jfO5L-10" style="edgeStyle=orthogonalEdgeStyle;rounded=0;orthogonalLoop=1;jettySize=auto;html=1;exitX=1;exitY=0.5;exitDx=0;exitDy=0;entryX=1;entryY=0.5;entryDx=0;entryDy=0;fontSize=13;" parent="1" source="eXbBCO9rOejYfm_jfO5L-8" target="eXbBCO9rOejYfm_jfO5L-2" edge="1">
          <mxGeometry relative="1" as="geometry">
            <Array as="points">
              <mxPoint x="300" y="570" />
              <mxPoint x="300" y="235" />
            </Array>
          </mxGeometry>
        </mxCell>
        <mxCell id="eXbBCO9rOejYfm_jfO5L-29" value="&lt;font&gt;BUCLE&lt;/font&gt;" style="edgeLabel;html=1;align=center;verticalAlign=middle;resizable=0;points=[];fontSize=13;" parent="eXbBCO9rOejYfm_jfO5L-10" vertex="1" connectable="0">
          <mxGeometry x="0.0795" y="2" relative="1" as="geometry">
            <mxPoint as="offset" />
          </mxGeometry>
        </mxCell>
        <mxCell id="eXbBCO9rOejYfm_jfO5L-8" value="Bloque n" style="rounded=1;whiteSpace=wrap;html=1;fontSize=13;" parent="1" vertex="1">
          <mxGeometry x="110" y="555" width="120" height="30" as="geometry" />
        </mxCell>
        <mxCell id="eXbBCO9rOejYfm_jfO5L-28" style="edgeStyle=orthogonalEdgeStyle;rounded=0;orthogonalLoop=1;jettySize=auto;html=1;exitX=0.5;exitY=1;exitDx=0;exitDy=0;entryX=0.5;entryY=0;entryDx=0;entryDy=0;fontSize=13;" parent="1" source="eXbBCO9rOejYfm_jfO5L-12" target="eXbBCO9rOejYfm_jfO5L-22" edge="1">
          <mxGeometry relative="1" as="geometry" />
        </mxCell>
        <mxCell id="eXbBCO9rOejYfm_jfO5L-12" value="Setup del simulador" style="rounded=1;whiteSpace=wrap;html=1;fontSize=13;" parent="1" vertex="1">
          <mxGeometry x="438" y="120" width="130" height="60" as="geometry" />
        </mxCell>
        <mxCell id="eXbBCO9rOejYfm_jfO5L-13" value="Bloque 1" style="rounded=1;whiteSpace=wrap;html=1;fontSize=13;" parent="1" vertex="1">
          <mxGeometry x="443" y="410" width="120" height="30" as="geometry" />
        </mxCell>
        <mxCell id="eXbBCO9rOejYfm_jfO5L-14" value="" style="endArrow=none;dashed=1;html=1;dashPattern=1 3;strokeWidth=2;rounded=0;entryX=0.5;entryY=1;entryDx=0;entryDy=0;exitX=0.5;exitY=0;exitDx=0;exitDy=0;fontSize=13;" parent="1" source="eXbBCO9rOejYfm_jfO5L-16" target="eXbBCO9rOejYfm_jfO5L-13" edge="1">
          <mxGeometry width="50" height="50" relative="1" as="geometry">
            <mxPoint x="503" y="440" as="sourcePoint" />
            <mxPoint x="483" y="420" as="targetPoint" />
          </mxGeometry>
        </mxCell>
        <mxCell id="eXbBCO9rOejYfm_jfO5L-15" style="edgeStyle=orthogonalEdgeStyle;rounded=0;orthogonalLoop=1;jettySize=auto;html=1;exitX=0.5;exitY=1;exitDx=0;exitDy=0;entryX=0.5;entryY=0;entryDx=0;entryDy=0;fontSize=13;" parent="1" source="eXbBCO9rOejYfm_jfO5L-16" target="eXbBCO9rOejYfm_jfO5L-18" edge="1">
          <mxGeometry relative="1" as="geometry" />
        </mxCell>
        <mxCell id="eXbBCO9rOejYfm_jfO5L-16" value="&lt;div&gt;Motor:&lt;/div&gt;&lt;div align=&quot;left&quot;&gt;&amp;nbsp;- Recibir entradas&lt;/div&gt;&lt;div align=&quot;left&quot;&gt;&amp;nbsp;- Devolver salidas&lt;/div&gt;" style="rounded=1;whiteSpace=wrap;html=1;fontSize=13;" parent="1" vertex="1">
          <mxGeometry x="433" y="460" width="140" height="60" as="geometry" />
        </mxCell>
        <mxCell id="eXbBCO9rOejYfm_jfO5L-18" value="&lt;div&gt;Reductora:&lt;/div&gt;&lt;div align=&quot;left&quot;&gt;&amp;nbsp;- Recibir entradas&lt;/div&gt;&lt;div align=&quot;left&quot;&gt;&amp;nbsp;- Devolver salidas&lt;/div&gt;" style="rounded=1;whiteSpace=wrap;html=1;fontSize=13;" parent="1" vertex="1">
          <mxGeometry x="418" y="540" width="170" height="60" as="geometry" />
        </mxCell>
        <mxCell id="eXbBCO9rOejYfm_jfO5L-19" style="edgeStyle=orthogonalEdgeStyle;rounded=0;orthogonalLoop=1;jettySize=auto;html=1;exitX=1;exitY=0.5;exitDx=0;exitDy=0;entryX=1;entryY=0.5;entryDx=0;entryDy=0;fontSize=13;" parent="1" source="eXbBCO9rOejYfm_jfO5L-20" target="eXbBCO9rOejYfm_jfO5L-13" edge="1">
          <mxGeometry relative="1" as="geometry">
            <Array as="points">
              <mxPoint x="633" y="635" />
              <mxPoint x="633" y="425" />
            </Array>
          </mxGeometry>
        </mxCell>
        <mxCell id="eXbBCO9rOejYfm_jfO5L-30" value="BUCLE" style="edgeLabel;html=1;align=center;verticalAlign=middle;resizable=0;points=[];fontSize=13;" parent="eXbBCO9rOejYfm_jfO5L-19" vertex="1" connectable="0">
          <mxGeometry x="0.0968" y="2" relative="1" as="geometry">
            <mxPoint as="offset" />
          </mxGeometry>
        </mxCell>
        <mxCell id="eXbBCO9rOejYfm_jfO5L-20" value="Bloque n" style="rounded=1;whiteSpace=wrap;html=1;fontSize=13;" parent="1" vertex="1">
          <mxGeometry x="443" y="620" width="120" height="30" as="geometry" />
        </mxCell>
        <mxCell id="eXbBCO9rOejYfm_jfO5L-22" value="&lt;div&gt;Creación bloque 1:&lt;/div&gt;&lt;div align=&quot;left&quot;&gt;- Lectura de parámetros&lt;/div&gt;&lt;div align=&quot;left&quot;&gt;-Definición FT o SS&lt;/div&gt;" style="rounded=1;whiteSpace=wrap;html=1;fontSize=13;" parent="1" vertex="1">
          <mxGeometry x="430.5" y="210" width="145" height="70" as="geometry" />
        </mxCell>
        <mxCell id="eXbBCO9rOejYfm_jfO5L-24" style="edgeStyle=orthogonalEdgeStyle;rounded=0;orthogonalLoop=1;jettySize=auto;html=1;exitX=0.5;exitY=1;exitDx=0;exitDy=0;entryX=0.5;entryY=0;entryDx=0;entryDy=0;fontSize=13;" parent="1" source="eXbBCO9rOejYfm_jfO5L-23" target="eXbBCO9rOejYfm_jfO5L-13" edge="1">
          <mxGeometry relative="1" as="geometry" />
        </mxCell>
        <mxCell id="eXbBCO9rOejYfm_jfO5L-23" value="&lt;div&gt;Creación bloque n:&lt;/div&gt;&lt;div align=&quot;left&quot;&gt;- Lectura de parámetros&lt;/div&gt;&lt;div align=&quot;left&quot;&gt;-Definición FT o SS&lt;/div&gt;" style="rounded=1;whiteSpace=wrap;html=1;fontSize=13;" parent="1" vertex="1">
          <mxGeometry x="430.5" y="310" width="145" height="70" as="geometry" />
        </mxCell>
        <mxCell id="eXbBCO9rOejYfm_jfO5L-25" value="" style="endArrow=none;dashed=1;html=1;dashPattern=1 3;strokeWidth=2;rounded=0;entryX=0.5;entryY=1;entryDx=0;entryDy=0;exitX=0.5;exitY=0;exitDx=0;exitDy=0;fontSize=13;" parent="1" source="eXbBCO9rOejYfm_jfO5L-23" target="eXbBCO9rOejYfm_jfO5L-22" edge="1">
          <mxGeometry width="50" height="50" relative="1" as="geometry">
            <mxPoint x="158" y="310" as="sourcePoint" />
            <mxPoint x="158" y="270" as="targetPoint" />
          </mxGeometry>
        </mxCell>
        <mxCell id="eXbBCO9rOejYfm_jfO5L-26" value="" style="endArrow=none;dashed=1;html=1;rounded=0;entryX=0.5;entryY=1;entryDx=0;entryDy=0;exitX=0.5;exitY=0;exitDx=0;exitDy=0;fontSize=13;" parent="1" source="eXbBCO9rOejYfm_jfO5L-8" target="eXbBCO9rOejYfm_jfO5L-6" edge="1">
          <mxGeometry width="50" height="50" relative="1" as="geometry">
            <mxPoint x="390" y="460" as="sourcePoint" />
            <mxPoint x="440" y="410" as="targetPoint" />
          </mxGeometry>
        </mxCell>
        <mxCell id="eXbBCO9rOejYfm_jfO5L-27" value="" style="endArrow=none;dashed=1;html=1;rounded=0;entryX=0.5;entryY=1;entryDx=0;entryDy=0;exitX=0.5;exitY=0;exitDx=0;exitDy=0;fontSize=13;" parent="1" source="eXbBCO9rOejYfm_jfO5L-20" target="eXbBCO9rOejYfm_jfO5L-18" edge="1">
          <mxGeometry width="50" height="50" relative="1" as="geometry">
            <mxPoint x="318" y="565" as="sourcePoint" />
            <mxPoint x="318" y="540" as="targetPoint" />
          </mxGeometry>
        </mxCell>
        <mxCell id="eXbBCO9rOejYfm_jfO5L-31" value="&lt;font style=&quot;font-size: 14px;&quot;&gt;ACTUALMENTE&lt;/font&gt;" style="text;html=1;align=center;verticalAlign=middle;resizable=0;points=[];autosize=1;strokeColor=none;fillColor=none;" parent="1" vertex="1">
          <mxGeometry x="105" y="70" width="130" height="30" as="geometry" />
        </mxCell>
        <mxCell id="eXbBCO9rOejYfm_jfO5L-32" value="&lt;font style=&quot;font-size: 14px;&quot;&gt;SIMULADOR LINEAL&lt;/font&gt;" style="text;html=1;align=center;verticalAlign=middle;resizable=0;points=[];autosize=1;strokeColor=none;fillColor=none;" parent="1" vertex="1">
          <mxGeometry x="423" y="70" width="160" height="30" as="geometry" />
        </mxCell>
      </root>
    </mxGraphModel>
  </diagram>
</mxfile>
